<?xml version="1.0" encoding="utf-8"?>
<!-- Generator: Adobe Illustrator 19.2.0, SVG Export Plug-In . SVG Version: 6.00 Build 0)  -->
<svg version="1.1" id="图层_1" xmlns="http://www.w3.org/2000/svg" xmlns:xlink="http://www.w3.org/1999/xlink" x="0px" y="0px"
	 viewBox="0 0 1000 1000" style="enable-background:new 0 0 1000 1000;" xml:space="preserve">
<style type="text/css">
	.st0{fill:url(#XMLID_2_);}
	.st1{fill:url(#XMLID_3_);}
	.st2{fill:url(#XMLID_4_);}
	.st3{fill:url(#XMLID_5_);}
</style>
<g id="XMLID_735_">
	
		<linearGradient id="XMLID_2_" gradientUnits="userSpaceOnUse" x1="741.7" y1="719.2082" x2="741.7001" y2="277.7969" gradientTransform="matrix(1 0 0 -1 0 1000.31)">
		<stop  offset="0" style="stop-color:#1EBE5E"/>
		<stop  offset="1" style="stop-color:#01913A"/>
	</linearGradient>
	<path id="XMLID_736_" class="st0" d="M666.4,560.3c11.6-67.3,33.8-130,62.6-176.5c39-63.1,77.1-76.3,102.2-76.3h12.5v-25h-12.5
		c-97.8,0-166.7,141.8-189.4,273.6l-2.1,12.3l24.6,4.2L666.4,560.3z"/>
	
		<linearGradient id="XMLID_3_" gradientUnits="userSpaceOnUse" x1="651.55" y1="719.2082" x2="651.55" y2="277.7969" gradientTransform="matrix(1 0 0 -1 0 1000.31)">
		<stop  offset="0" style="stop-color:#1EBE5E"/>
		<stop  offset="1" style="stop-color:#01913A"/>
	</linearGradient>
	<path id="XMLID_741_" class="st1" d="M871.5,282.4v12.5c0,107.9-37.4,289.8-83.8,353.8c-24.4,33.6-48.6,48-71.8,42.8
		c-21.2-4.8-42.5-25.6-61.6-60.3c-18.5-33.7-33.8-79.1-42.9-127.8c-26-139.4-61.6-204.7-115.3-211.8c-33.2-4.3-58.7,2.7-80.3,22
		l-9.3,8.3l16.7,18.6l9.3-8.3c16-14.3,34.7-19.2,60.4-15.9c40.1,5.3,70.9,67.9,94.1,191.6c9.6,51.3,25.8,99.3,45.5,135.3
		c22.6,41.1,49.6,66.2,78,72.6c5,1.1,9.9,1.7,14.9,1.7c11.7,0,23.4-3.1,35-9.3c16.3-8.8,32.3-23.9,47.6-44.9
		c32.1-44.2,53.8-126.4,63.9-171.5c15.5-69.2,24.7-142.9,24.7-197v-12.5h-25.1V282.4z"/>
	
		<linearGradient id="XMLID_4_" gradientUnits="userSpaceOnUse" x1="271.8999" y1="719.2082" x2="271.9" y2="277.7969" gradientTransform="matrix(1 0 0 -1 0 1000.31)">
		<stop  offset="0" style="stop-color:#1EBE5E"/>
		<stop  offset="1" style="stop-color:#01913A"/>
	</linearGradient>
	<path id="XMLID_742_" class="st2" d="M350,423c-5.6,19.1-7.7,39.3-10.2,62.8c-1.7,16.6-3.5,33.7-6.7,52.7
		c-6.2,36.4-18.1,67-35.5,91.1c-13.7,19-30.8,33.9-50.8,44.5c-34.4,18.1-66.2,17.2-66.9,17.2l-12.5-0.6l-1.1,25l12.5,0.6
		c0.2,0,1,0,2.4,0c9,0,41.1-1.4,76.1-19.5c23.8-12.3,44-29.7,60.1-51.9c19.9-27.3,33.4-61.7,40.4-102.2c3.4-19.8,5.3-38.1,6.9-54.3
		c2.3-22.3,4.3-41.5,9.3-58.3l3.5-12l-24-7.1L350,423z"/>
	
		<linearGradient id="XMLID_5_" gradientUnits="userSpaceOnUse" x1="358.9" y1="719.2082" x2="358.9" y2="277.7969" gradientTransform="matrix(1 0 0 -1 0 1000.31)">
		<stop  offset="0" style="stop-color:#1EBE5E"/>
		<stop  offset="1" style="stop-color:#01913A"/>
	</linearGradient>
	<path id="XMLID_743_" class="st3" d="M586.4,652.1c0,0.1-4.2,11.4-11.9,21.4c-13.4,17.3-24.6,14.6-28.2,13.7h-0.1
		c-20.7-4.9-38.3-23.9-53.7-58.3c-14.9-33.2-25.9-75.4-37.6-120.1C441.7,458,428,405.4,407.5,364.5c-24.6-49-55.9-74.2-95.6-77.2
		c-38.3-2.9-73.1,18.3-103.4,63c-22.9,33.6-43.5,81-61.3,140.8c-30,100.8-42.1,204.2-42.2,205.3l-1.4,12.4l24.8,2.8l1.4-12.4
		c0.1-1,12-102.6,41.4-201.3C218.5,339.4,272.8,309.4,310,312.2c69.3,5.2,95.4,105.7,120.7,202.9C455,608.5,478,696.8,540.4,711.5
		c3.7,0.9,7.5,1.4,11.1,1.4c15.7,0,30.6-8.3,42.8-24.1c10.3-13.3,15.5-27.7,15.7-28.3l4.2-11.8l-23.5-8.4L586.4,652.1z"/>
</g>
</svg>
