<svg id="图层_1" data-name="图层 1" xmlns="http://www.w3.org/2000/svg" xmlns:xlink="http://www.w3.org/1999/xlink" viewBox="0 0 1000 1000"><defs><style>.cls-1{fill:url(#未命名的渐变_2);}</style><linearGradient id="未命名的渐变_2" x1="500" y1="219.49" x2="500" y2="771.3" gradientUnits="userSpaceOnUse"><stop offset="0" stop-color="#1ebf5e"/><stop offset="1" stop-color="#00903a"/></linearGradient></defs><title>未标题-6</title><path id="_复合路径_" data-name="&lt;复合路径&gt;" class="cls-1" d="M500,242.38c-122.84,0-215.47,40.35-215.47,93.87,0,0.57.16,1.11,0.18,1.67h-0.18V637.67h0.27c2.91,67.5,96.27,120,215.19,120,120.84,0,215.48-54.1,215.48-123.16V336.25C715.48,282.73,622.83,242.38,500,242.38Zm0,24.25c112.69,0,191.23,36.69,191.23,69.62S612.68,405.87,500,405.87s-191.22-36.69-191.22-69.62S387.3,266.63,500,266.63ZM691.23,634.46c0,53.61-87.57,98.91-191.23,98.91s-191.22-45.29-191.22-98.91V588.53c35.59,37.55,107,62.7,191.22,62.7s155.65-25.15,191.23-62.7v45.93Zm0-100.84c0,50.6-87.57,93.35-191.23,93.35s-191.22-42.75-191.22-93.35v-51c35.59,35.8,107,59.77,191.22,59.77s155.65-24,191.23-59.77v51ZM500,518.19c-103.65,0-191.22-40.23-191.22-87.86V380.82C344,410.64,414.69,430.12,500,430.12s156-19.49,191.23-49.3v49.51C691.23,478,603.65,518.19,500,518.19Z"/></svg>