<svg id="图层_1" data-name="图层 1" xmlns="http://www.w3.org/2000/svg" viewBox="0 0 581.21 91.67"><defs><style>.cls-1{fill:none;stroke:#fff;stroke-miterlimit:10;}.cls-2{fill:#fff;}</style></defs><title>ai帮助中心</title><line class="cls-1" x1="280.41" y1="4.6" x2="280.41" y2="87.07"/><path class="cls-2" d="M313.73,28.19h12.68v-6h-14V18.88h14V14.4h3.72v4.48h12.68v3.31H330.13v6h10.75v3.24H330.06a37,37,0,0,1-.83,6h13.44V40.8H328.2a21,21,0,0,1-2.14,3.93q-3.79,5.17-12.48,8.13l-2-3.1q8.13-2.69,11.65-7.38l0.9-1.59H310.42V37.42h15a26.84,26.84,0,0,0,1-6H313.73V28.19ZM339.3,47.9H343v6.82h21.85V68.17q0,5.17-5.45,5.17h-5.79l-1-3.45L358.25,70q3,0,3-2.62V58.17H343V77.68H339.3V58.17H321.38V73.41h-3.65V54.73H339.3V47.9Zm7.86-30.4h21.44v2.55a72.37,72.37,0,0,1-6,10.75q6.2,5,6.2,8.89-0.14,5.31-5.45,6.55a26.3,26.3,0,0,1-7,.76l-1.31-3.45a23.16,23.16,0,0,0,2.83.21q7.1-.14,7.1-4.07,0-2.9-6.55-8.89a54.39,54.39,0,0,0,6.07-9.93H350.81V49.62h-3.65V17.5Z"/><path class="cls-2" d="M405.75,18.4V61.27l4.82-1.59v3.58A285.09,285.09,0,0,1,379.42,72l-1-3.58,4.76-1V18.4h22.54ZM386.93,33.56H402V21.91h-15.1V33.56Zm0,15.23H402V36.94h-15.1V48.8Zm0,17.72q7.45-1.72,15.1-4.07V52.24h-15.1V66.51Zm32-51.9h3.72V27.7h15.58q0,32-1,39.91-1.17,8.82-11.1,8.82-1.38,0-4.89-.21L420.36,73q4.14,0.14,5.45.14,6.75,0,7.79-6.69,0.76-5.44,1-35.16H422.64v0.14Q422.36,62.86,408,77.34l-3-2.55q13.72-13.51,13.92-43.36V31.29h-8.82V27.7h8.82V14.61Z"/><path class="cls-2" d="M476.47,14h3.86V26.74h25V58.45h-3.79V53.83H480.33V77.68h-3.86V53.83H455.38v4.62h-3.79V26.74h24.88V14ZM455.38,50.18h21.09V30.46H455.38V50.18Zm25,0h21.16V30.46H480.33V50.18Z"/><path class="cls-2" d="M527.62,37.15a129.65,129.65,0,0,1-8.48,29.78l-3.24-2.07A121.85,121.85,0,0,0,524,36.39Zm12.89,37.77q-6.55,0-6.55-6.2v-40h3.79V67.89q0,3.31,3.86,3.31h13.65a4.26,4.26,0,0,0,4-2q1.52-2.69,2-15.16l3.52,1.17q-0.62,13.72-2.83,17.1-1.86,2.62-5.93,2.62H540.51Zm1.31-60.11A144.5,144.5,0,0,1,557,32l-3.17,2.14a126.16,126.16,0,0,0-15.1-17.37ZM566.91,34A198.89,198.89,0,0,1,579.18,62.1l-3.45,1.52a177.53,177.53,0,0,0-12.48-28.33Z"/><g id="_编组_" data-name="&lt;编组&gt;"><g id="_编组_2" data-name="&lt;编组&gt;"><path class="cls-2" d="M22.5,66.26l-1.67,6.88a36.63,36.63,0,0,0,16.2,2l-2.15-8.88H22.5Zm6.19-23c-0.54,0-.7.22-0.86,0.86l-3.87,16h9.47l-3.87-16C29.38,43.51,29.22,43.29,28.68,43.29Zm45.2-9.06Q70.38,21.1,58.22,16t-26.7-1.23Q14.88,19.21,7.23,29t-4,23.29Q6.25,63.75,14.13,69.54L21.2,42.49c1.29-5,5.17-5.49,7.48-5.49s6.19,0.48,7.48,5.49L44.41,74c0.87-.19,1.75-0.4,2.63-0.64V49a1.08,1.08,0,0,1,1.08-1.08h5A1.08,1.08,0,0,1,54.14,49V71q11.06-4.42,16.53-12.21Q77.74,48.7,73.88,34.24ZM54.31,42.81a1.08,1.08,0,0,1-1.08,1.08H48a1.13,1.13,0,0,1-1.13-1.08V38.08A1.13,1.13,0,0,1,48,37h5.22a1.08,1.08,0,0,1,1.08,1.08v4.73Z"/></g><g id="_编组_3" data-name="&lt;编组&gt;"><path id="_复合路径_" data-name="&lt;复合路径&gt;" class="cls-2" d="M116.88,41.94H113.4a0.7,0.7,0,0,1-.62-0.56l-1.51-6.24h-7.56l-1.51,6.24a0.7,0.7,0,0,1-.62.56H98.09a0.56,0.56,0,0,1-.59-0.56,1.42,1.42,0,0,0,0-.16l5.39-20.6a4.79,4.79,0,0,1,9.13,0l5.39,20.6a1.45,1.45,0,0,0,0,.16A0.56,0.56,0,0,1,116.88,41.94ZM108,21.64c-0.1-.39-0.2-0.53-0.53-0.53s-0.43.13-.53,0.53l-2.37,9.76h5.78Z"/><path id="_复合路径_2" data-name="&lt;复合路径&gt;" class="cls-2" d="M126.08,42.21a24.88,24.88,0,0,1-3.15-.23v5.82a0.66,0.66,0,0,1-.66.66h-3a0.66,0.66,0,0,1-.66-0.66V24.92c0-.49.13-0.69,0.89-0.89a28,28,0,0,1,6.61-.85c5.29,0,7.85,3.12,7.85,8.25V34C133.93,39.09,131.37,42.21,126.08,42.21Zm3.52-10.78c0-2.69-.69-4.7-3.52-4.7a19.12,19.12,0,0,0-3.15.23V38.43a27.42,27.42,0,0,0,3.15.23c2.83,0,3.52-2,3.52-4.7V31.43Z"/><path id="_复合路径_3" data-name="&lt;复合路径&gt;" class="cls-2" d="M143.39,42.21a24.88,24.88,0,0,1-3.15-.23v5.82a0.66,0.66,0,0,1-.66.66h-3a0.66,0.66,0,0,1-.66-0.66V24.92c0-.49.13-0.69,0.89-0.89a28,28,0,0,1,6.6-.85c5.29,0,7.85,3.12,7.85,8.25V34C151.25,39.09,148.68,42.21,143.39,42.21Zm3.52-10.78c0-2.69-.69-4.7-3.52-4.7a19.12,19.12,0,0,0-3.15.23V38.43a27.42,27.42,0,0,0,3.15.23c2.83,0,3.52-2,3.52-4.7V31.43Z"/><path id="_复合路径_4" data-name="&lt;复合路径&gt;" class="cls-2" d="M157.09,41.94H154a0.69,0.69,0,0,1-.66-0.69V17.6a0.66,0.66,0,0,1,.66-0.66h3.06a0.63,0.63,0,0,1,.62.66V41.25A0.66,0.66,0,0,1,157.09,41.94Z"/><path id="_复合路径_5" data-name="&lt;复合路径&gt;" class="cls-2" d="M164.38,20.95H161.2a0.69,0.69,0,0,1-.69-0.66V17.4a0.69,0.69,0,0,1,.69-0.66h3.19a0.66,0.66,0,0,1,.66.66v2.89A0.66,0.66,0,0,1,164.38,20.95Zm-0.1,21h-3a0.69,0.69,0,0,1-.66-0.69V24.07a0.66,0.66,0,0,1,.66-0.66h3a0.66,0.66,0,0,1,.66.66V41.25A0.69,0.69,0,0,1,164.29,41.94Z"/><path id="_复合路径_6" data-name="&lt;复合路径&gt;" class="cls-2" d="M178.74,41.78a18,18,0,0,1-4.24.43c-4.27,0-7.49-2.63-7.49-8V31.17c0-5.36,3.22-8,7.49-8a18,18,0,0,1,4.24.43,0.72,0.72,0,0,1,.69.85V26.6a0.51,0.51,0,0,1-.59.49h-0.1a28.26,28.26,0,0,0-4.24-.23c-1.54,0-3.15.89-3.15,4.3v3.06c0,3.42,1.61,4.3,3.15,4.3a28.26,28.26,0,0,0,4.24-.23h0.1a0.51,0.51,0,0,1,.59.49v2.14A0.72,0.72,0,0,1,178.74,41.78Z"/><path id="_复合路径_7" data-name="&lt;复合路径&gt;" class="cls-2" d="M194.48,41.94h-2.79a0.66,0.66,0,0,1-.66-0.66V40.76a8.91,8.91,0,0,1-4.63,1.45c-2.73,0-5.68-1.05-5.68-5.49V36.59c0-3.75,2.3-5.68,8-5.68h2.07V29.46c0-2.14-1-2.66-2.89-2.66a51.87,51.87,0,0,0-5.36.26h-0.16a0.5,0.5,0,0,1-.59-0.56V24.4a0.68,0.68,0,0,1,.62-0.69,28.34,28.34,0,0,1,5.49-.53c4.67,0,7.23,2.07,7.23,6.28V41.29A0.66,0.66,0,0,1,194.48,41.94ZM190.8,33.8h-2.07c-3,0-3.65,1-3.65,2.79v0.13c0,1.61.72,2,2.37,2a7.2,7.2,0,0,0,3.35-.92v-4Z"/><path id="_复合路径_8" data-name="&lt;复合路径&gt;" class="cls-2" d="M206.57,42a13.58,13.58,0,0,1-2.23.23c-3.71,0-5.22-.82-5.22-5.22V26.67L196,26.21a0.71,0.71,0,0,1-.66-0.66V24.07a0.66,0.66,0,0,1,.66-0.66h3.09V20.72a0.71,0.71,0,0,1,.66-0.66l3.06-.53H203a0.47,0.47,0,0,1,.53.49v3.38h3a0.66,0.66,0,0,1,.66.66V26a0.66,0.66,0,0,1-.66.66h-3V37c0,1.64.1,1.84,1.28,1.84h1.74a0.56,0.56,0,0,1,.69.49v2.07A0.6,0.6,0,0,1,206.57,42Z"/><path id="_复合路径_9" data-name="&lt;复合路径&gt;" class="cls-2" d="M212.38,20.95H209.2a0.69,0.69,0,0,1-.69-0.66V17.4a0.69,0.69,0,0,1,.69-0.66h3.19a0.66,0.66,0,0,1,.66.66v2.89A0.66,0.66,0,0,1,212.38,20.95Zm-0.1,21h-3a0.69,0.69,0,0,1-.66-0.69V24.07a0.66,0.66,0,0,1,.66-0.66h3a0.66,0.66,0,0,1,.66.66V41.25A0.69,0.69,0,0,1,212.28,41.94Z"/><path id="_复合路径_10" data-name="&lt;复合路径&gt;" class="cls-2" d="M223,42.21c-5.16,0-7.85-3.48-7.85-8.18V31.36c0-4.7,2.69-8.18,7.85-8.18s7.85,3.48,7.85,8.18V34C230.81,38.72,228.12,42.21,223,42.21Zm3.52-10.84c0-2.69-1.22-4.44-3.52-4.44s-3.52,1.74-3.52,4.44V34c0,2.69,1.22,4.44,3.52,4.44s3.52-1.74,3.52-4.44V31.36Z"/><path id="_复合路径_11" data-name="&lt;复合路径&gt;" class="cls-2" d="M247.4,41.94h-3a0.69,0.69,0,0,1-.66-0.69V30.54c0-2.86-.26-3.68-2.79-3.68A8.36,8.36,0,0,0,237.22,28V41.25a0.69,0.69,0,0,1-.66.69h-3a0.69,0.69,0,0,1-.66-0.69V24.07a0.66,0.66,0,0,1,.66-0.66h2.86a0.66,0.66,0,0,1,.66.66v0.69a8.51,8.51,0,0,1,5.32-1.58c4.73,0,5.68,3.19,5.68,7.36V41.25A0.69,0.69,0,0,1,247.4,41.94Z"/><path id="_复合路径_12" data-name="&lt;复合路径&gt;" class="cls-2" d="M103.25,74.67H100A0.66,0.66,0,0,1,99.34,74V50.88a0.63,0.63,0,0,1,.66-0.62h3.25a0.63,0.63,0,0,1,.66.62V74A0.66,0.66,0,0,1,103.25,74.67Z"/><path id="_复合路径_13" data-name="&lt;复合路径&gt;" class="cls-2" d="M121.38,74.67h-3A0.69,0.69,0,0,1,117.7,74V63.27c0-2.86-.26-3.68-2.79-3.68a8.36,8.36,0,0,0-3.71,1.18V74a0.69,0.69,0,0,1-.66.69h-3a0.69,0.69,0,0,1-.66-0.69V56.8a0.66,0.66,0,0,1,.66-0.66h2.86a0.66,0.66,0,0,1,.66.66v0.69a8.51,8.51,0,0,1,5.32-1.58c4.73,0,5.68,3.19,5.68,7.36V74A0.69,0.69,0,0,1,121.38,74.67Z"/><path id="_复合路径_14" data-name="&lt;复合路径&gt;" class="cls-2" d="M130.68,74.93a27.2,27.2,0,0,1-5.88-.66,0.74,0.74,0,0,1-.62-0.76v-2a0.55,0.55,0,0,1,.56-0.53h0.13c1.58,0.2,4.53.36,5.52,0.36,2,0,2.33-.69,2.33-1.58,0-.62-0.39-1-1.45-1.68l-4.5-2.76A5.41,5.41,0,0,1,124,60.84c0-3.29,2.07-4.93,6.24-4.93a24.35,24.35,0,0,1,5.85.66,0.72,0.72,0,0,1,.59.76v1.91a0.53,0.53,0,0,1-.53.62H136a48.39,48.39,0,0,0-5.42-.39c-1.58,0-2.27.36-2.27,1.38,0,0.53.49,0.85,1.31,1.35l4.3,2.63c2.76,1.68,3.15,3.32,3.15,5C137.12,72.67,135,74.93,130.68,74.93Z"/><path id="_复合路径_15" data-name="&lt;复合路径&gt;" class="cls-2" d="M143,53.67h-3.19a0.69,0.69,0,0,1-.69-0.66V50.13a0.69,0.69,0,0,1,.69-0.66H143a0.66,0.66,0,0,1,.66.66V53A0.66,0.66,0,0,1,143,53.67Zm-0.1,21h-3a0.69,0.69,0,0,1-.66-0.69V56.8a0.66,0.66,0,0,1,.66-0.66h3a0.66,0.66,0,0,1,.66.66V74A0.69,0.69,0,0,1,142.87,74.67Z"/><path id="_复合路径_16" data-name="&lt;复合路径&gt;" class="cls-2" d="M161.86,59.13l-1.09.43a4.18,4.18,0,0,1,.82,2.63v0.23c0,4.11-2.83,6-7.79,6a9.89,9.89,0,0,1-3.58-.56,1,1,0,0,0-.56.85,1.08,1.08,0,0,0,1.12,1.08l3.88,0.92C159.13,71.75,162,72.44,162,76v0.23c0,3.35-2.46,5.16-8,5.16-5.32,0-8.15-2-8.15-5.45v-0.3A4.94,4.94,0,0,1,147.5,72,3.81,3.81,0,0,1,146,69v0a3.21,3.21,0,0,1,1.31-2.66A5.07,5.07,0,0,1,146,62.42V62.19c0-3.29,2.14-6,7.82-6h7.69a0.88,0.88,0,0,1,.89.89v1.38A0.62,0.62,0,0,1,161.86,59.13ZM157.68,76c0-.72-0.43-1.15-3.88-2l-2.92-.69a3.25,3.25,0,0,0-.82,2.3v0.3c0,1.35.82,2.17,3.91,2.17s3.71-.69,3.71-1.87V76Zm-0.36-13.7c0-1.58-.69-2.79-3.52-2.79s-3.55,1.25-3.55,2.79v0.26c0,1.22.49,2.6,3.55,2.6,2.73,0,3.52-1,3.52-2.6V62.25Z"/><path id="_复合路径_17" data-name="&lt;复合路径&gt;" class="cls-2" d="M178.32,74.67h-3a0.69,0.69,0,0,1-.66-0.69V63.17c0-2.86-.49-3.58-2.69-3.58a8.54,8.54,0,0,0-3.81,1.12V74a0.69,0.69,0,0,1-.66.69h-3a0.69,0.69,0,0,1-.66-0.69V50.32a0.66,0.66,0,0,1,.66-0.66h3a0.66,0.66,0,0,1,.66.66v6.8a8.81,8.81,0,0,1,5-1.22c4.54,0,5.88,3.22,5.88,7.26V74A0.69,0.69,0,0,1,178.32,74.67Z"/><path id="_复合路径_18" data-name="&lt;复合路径&gt;" class="cls-2" d="M190.67,74.7a13.58,13.58,0,0,1-2.23.23c-3.71,0-5.22-.82-5.22-5.22V59.39l-3.09-.46a0.71,0.71,0,0,1-.66-0.66V56.8a0.66,0.66,0,0,1,.66-0.66h3.09V53.44a0.71,0.71,0,0,1,.66-0.66l3.06-.53h0.13a0.47,0.47,0,0,1,.53.49v3.38h3a0.66,0.66,0,0,1,.66.66v1.94a0.66,0.66,0,0,1-.66.66h-3V69.71c0,1.64.1,1.84,1.28,1.84h1.74a0.56,0.56,0,0,1,.69.49v2.07A0.6,0.6,0,0,1,190.67,74.7Z"/></g></g></svg>