<svg id="图层_1" data-name="图层 1" xmlns="http://www.w3.org/2000/svg" xmlns:xlink="http://www.w3.org/1999/xlink" viewBox="0 0 1000 1000"><defs><style>.cls-1{fill:url(#未命名的渐变_2);}.cls-2{fill:url(#未命名的渐变_2-2);}</style><linearGradient id="未命名的渐变_2" x1="500" y1="237.09" x2="500" y2="765.53" gradientUnits="userSpaceOnUse"><stop offset="0" stop-color="#1ebf5e"/><stop offset="1" stop-color="#00903a"/></linearGradient><linearGradient id="未命名的渐变_2-2" x1="555.02" y1="237.09" x2="555.02" y2="765.53" xlink:href="#未命名的渐变_2"/></defs><title>未标题-6</title><g id="_编组_" data-name="&lt;编组&gt;"><path id="_路径_" data-name="&lt;路径&gt;" class="cls-1" d="M509.07,249.38A250.42,250.42,0,0,0,279.69,399.07l-16.07-55.65-23.3,6.73L268,445.9,361.08,419l-6.73-23.3-53.53,15.46A226.19,226.19,0,0,1,509.07,273.63c124.82,0,226.36,101.55,226.36,226.37S633.89,726.37,509.07,726.37A225.94,225.94,0,0,1,294,570.85l-23,7.58A250.12,250.12,0,0,0,509.07,750.62c138.19,0,250.61-112.42,250.61-250.61S647.26,249.38,509.07,249.38Z"/><polygon id="_路径_2" data-name="&lt;路径&gt;" class="cls-2" points="495.38 345.65 495.38 520.14 597.76 619.46 614.66 602.06 519.63 509.88 519.63 345.65 495.38 345.65"/></g></svg>