<svg id="图层_1" data-name="图层 1" xmlns="http://www.w3.org/2000/svg" xmlns:xlink="http://www.w3.org/1999/xlink" viewBox="0 0 1000 1000"><defs><style>.cls-1{fill:none;}.cls-2{fill:url(#未命名的渐变_2);}.cls-3{fill:url(#未命名的渐变_2-3);}</style><linearGradient id="未命名的渐变_2" x1="465.82" y1="220.74" x2="465.82" y2="780.74" gradientUnits="userSpaceOnUse"><stop offset="0" stop-color="#1ebf5e"/><stop offset="1" stop-color="#00903a"/></linearGradient><linearGradient id="未命名的渐变_2-3" x1="571.94" y1="220.74" x2="571.94" y2="780.74" xlink:href="#未命名的渐变_2"/></defs><title>未标题-6</title><g id="_编组_" data-name="&lt;编组&gt;"><path id="_路径_" data-name="&lt;路径&gt;" class="cls-1" d="M496.51,484.67a30.69,30.69,0,1,0-30.69,30.69A30.72,30.72,0,0,0,496.51,484.67Z"/><path id="_路径_2" data-name="&lt;路径&gt;" class="cls-1" d="M380.92,416.4c-48.77,20.7-86.72,53.14-102.75,68.27,16,15.13,54,47.58,102.76,68.28A108.6,108.6,0,0,1,380.92,416.4Z"/><path id="_复合路径_" data-name="&lt;复合路径&gt;" class="cls-1" d="M550.61,484.67a84.79,84.79,0,1,0-84.79,84.79A84.89,84.89,0,0,0,550.61,484.67Zm-139.74,0a54.94,54.94,0,1,1,54.94,54.94A55,55,0,0,1,410.88,484.67Z"/><path id="_路径_3" data-name="&lt;路径&gt;" class="cls-1" d="M653.47,484.67c-16-15.13-54-47.57-102.75-68.27a108.6,108.6,0,0,1,0,136.56C599.49,532.25,637.44,499.8,653.47,484.67Z"/><polygon id="_路径_4" data-name="&lt;路径&gt;" class="cls-1" points="682.24 303.69 715.43 303.68 682.16 270.6 682.24 303.69"/><path id="_复合路径_2" data-name="&lt;复合路径&gt;" class="cls-2" d="M679.61,492.91l7.63-8.24-7.63-8.24c-3.9-4.2-96.7-103-213.79-103s-209.9,98.77-213.79,103l-7.63,8.24,7.63,8.24c3.9,4.2,96.7,103,213.79,103S675.72,497.11,679.61,492.91ZM550.72,416.4c48.77,20.7,86.72,53.14,102.75,68.27-16,15.13-54,47.58-102.76,68.28A108.6,108.6,0,0,0,550.72,416.4ZM278.17,484.67c16-15.13,54-47.57,102.75-68.27a108.6,108.6,0,0,0,0,136.56C332.15,532.25,294.2,499.8,278.17,484.67Zm102.86,0a84.79,84.79,0,1,1,84.79,84.79A84.89,84.89,0,0,1,381,484.67Z"/><path id="_复合路径_3" data-name="&lt;复合路径&gt;" class="cls-2" d="M520.76,484.67a54.94,54.94,0,1,0-54.94,54.94A55,55,0,0,0,520.76,484.67Zm-85.63,0a30.69,30.69,0,1,1,30.69,30.69A30.72,30.72,0,0,1,435.13,484.67Z"/><path id="_复合路径_4" data-name="&lt;复合路径&gt;" class="cls-3" d="M676.95,231.21H388.29v134.3h24.25v-110H657.88L658,328l73.3,0V744.54H412.54v-133H388.29V768.79H755.6V309.42Zm5.29,72.48-0.07-33.09,33.26,33.08H682.24Z"/></g></svg>